<svg width="19" height="20" viewBox="0 0 19 20" fill="none" xmlns="http://www.w3.org/2000/svg">
<path d="M3.88298 16.311C3.58298 16.111 3.32498 15.856 3.02298 15.495C2.86622 15.3031 2.71089 15.1101 2.55698 14.916C2.09398 14.341 1.80198 14.076 1.49998 13.967C1.25028 13.8773 1.04641 13.6922 0.933238 13.4522C0.820058 13.2123 0.806838 12.9372 0.896478 12.6875C0.986118 12.4378 1.17129 12.2339 1.41124 12.1207C1.65119 12.0076 1.92628 11.9943 2.17598 12.084C2.92798 12.354 3.43698 12.819 4.12298 13.672C4.02898 13.555 4.46298 14.099 4.55598 14.211C4.74598 14.438 4.88598 14.576 4.99598 14.649C5.19998 14.786 5.58298 14.845 6.14598 14.789C6.16898 14.407 6.23998 14.036 6.34798 13.694C3.37998 12.968 1.69998 11.054 1.69998 7.298C1.69998 6.05798 2.06998 4.94198 2.75798 4.00598C2.53998 3.11198 2.57298 2.03098 3.05998 0.813982C3.11525 0.676322 3.20045 0.552672 3.30942 0.452012C3.41838 0.351352 3.54838 0.276192 3.68998 0.231982C3.77098 0.207982 3.81698 0.196982 3.89798 0.184982C4.70098 0.0619821 5.83498 0.354982 7.31298 1.28098C8.1938 1.07506 9.0954 0.971712 10 0.972982C10.912 0.972982 11.818 1.07698 12.684 1.28098C14.161 0.347982 15.297 0.0549821 16.106 0.184982C16.191 0.197982 16.263 0.214982 16.324 0.234982C16.4628 0.280762 16.5899 0.356422 16.6963 0.456622C16.8028 0.556832 16.8859 0.679162 16.94 0.814982C17.427 2.03098 17.46 3.11198 17.242 4.00498C17.933 4.94098 18.3 6.04998 18.3 7.298C18.3 11.055 16.626 12.963 13.658 13.69C13.783 14.105 13.848 14.569 13.848 15.07C13.8481 15.9753 13.8441 16.8807 13.836 17.786C14.0606 17.835 14.2614 17.9598 14.4047 18.1395C14.548 18.3193 14.625 18.5429 14.6228 18.7727C14.6206 19.0026 14.5392 19.2246 14.3925 19.4015C14.2457 19.5784 14.0425 19.6994 13.817 19.744C12.678 19.972 11.834 19.212 11.834 18.219L11.836 17.773L11.841 17.068C11.846 16.36 11.848 15.73 11.848 15.07C11.848 14.373 11.665 13.918 11.423 13.71C10.762 13.14 11.097 12.055 11.963 11.958C14.93 11.625 16.3 10.476 16.3 7.298C16.3 6.34298 15.988 5.55398 15.387 4.89398C15.2604 4.75523 15.1754 4.58361 15.1418 4.39879C15.1082 4.21397 15.1273 4.02343 15.197 3.84898C15.363 3.43498 15.434 2.89198 15.293 2.23498L15.283 2.23798C14.792 2.37698 14.173 2.67798 13.425 3.18698C13.3044 3.26884 13.1673 3.32333 13.0234 3.34665C12.8795 3.36997 12.7323 3.36155 12.592 3.32198C11.7479 3.08827 10.8758 2.97085 10 2.97298C9.11 2.97298 8.228 3.09198 7.40798 3.32298C7.2682 3.36224 7.12155 3.37059 6.97821 3.34745C6.83488 3.32431 6.69831 3.27023 6.57798 3.18898C5.82598 2.68198 5.20398 2.38198 4.70998 2.24198C4.56598 2.89498 4.63698 3.43598 4.80198 3.84898C4.87179 4.02334 4.89108 4.21383 4.85766 4.39864C4.82423 4.58346 4.73944 4.75512 4.61298 4.89398C4.01598 5.54798 3.69998 6.35198 3.69998 7.298C3.69998 10.47 5.07098 11.626 8.022 11.958C8.887 12.055 9.223 13.135 8.566 13.706C8.374 13.874 8.137 14.438 8.137 15.07V18.22C8.137 19.206 7.30198 19.945 6.17698 19.748C5.94875 19.7079 5.74151 19.5898 5.5907 19.4139C5.43988 19.238 5.35484 19.0151 5.35012 18.7834C5.3454 18.5518 5.42128 18.3256 5.5648 18.1437C5.70832 17.9618 5.91057 17.8353 6.13698 17.786V16.796C5.22698 16.857 4.47498 16.708 3.88298 16.311Z" fill="black"/>
</svg>
