<svg width="40" height="40" viewBox="0 0 40 40" fill="none" xmlns="http://www.w3.org/2000/svg">
<path d="M20 40C31.0457 40 40 31.0457 40 20C40 8.9543 31.0457 0 20 0C8.9543 0 0 8.9543 0 20C0 31.0457 8.9543 40 20 40Z" fill="#85B733"/>
<mask id="mask0_6798_2416" style="mask-type:luminance" maskUnits="userSpaceOnUse" x="10" y="10" width="20" height="20">
<path d="M30 10H10V30H30V10Z" fill="white"/>
</mask>
<g mask="url(#mask0_6798_2416)">
<path d="M12.6255 21.3672C12.3001 19.6107 12.6123 17.7956 13.506 16.2488C14.3997 14.702 15.8162 13.525 17.5005 12.9297V18.5547L12.6255 21.3672Z" stroke="white" stroke-width="1.2" stroke-linecap="round" stroke-linejoin="round"/>
<path d="M20.0024 20.0328V12.5C21.3164 12.5002 22.6074 12.8456 23.7459 13.5017C24.8844 14.1577 25.8306 15.1014 26.4897 16.2382C27.1487 17.375 27.4976 18.665 27.5013 19.979C27.505 21.293 27.1633 22.5849 26.5106 23.7254C25.8579 24.8659 24.9171 25.8148 23.7822 26.4772C22.6474 27.1397 21.3584 27.4923 20.0444 27.4999C18.7304 27.5074 17.4375 27.1696 16.2951 26.5203C15.1527 25.871 14.201 24.9329 13.5352 23.8L26.4977 16.25" stroke="white" stroke-width="1.2" stroke-linecap="round" stroke-linejoin="round"/>
</g>
</svg>
