<svg width="24" height="25" viewBox="0 0 24 25" fill="none" xmlns="http://www.w3.org/2000/svg">
<path d="M7.764 19.8832C8.354 19.6232 9.014 19.5742 9.632 19.7442C10.402 19.9542 11.197 20.0602 12 20.0582C16.585 20.0582 20 16.7712 20 12.3582C20 7.9452 16.585 4.6582 12 4.6582C7.415 4.6582 4 7.9452 4 12.3582C4 14.6282 4.896 16.6302 6.466 18.0342C6.75126 18.2869 6.98194 18.5951 7.14391 18.94C7.30589 19.285 7.39575 19.6593 7.408 20.0402L7.764 19.8832ZM12 2.6582C17.634 2.6582 22 6.7852 22 12.3582C22 17.9312 17.634 22.0582 12 22.0582C11.0221 22.0607 10.0484 21.9316 9.105 21.6742C8.9278 21.6255 8.73924 21.6393 8.571 21.7132L6.587 22.5892C6.46713 22.6422 6.33608 22.6649 6.20537 22.6554C6.07467 22.6458 5.94831 22.6043 5.8374 22.5345C5.72649 22.4647 5.63444 22.3687 5.56933 22.2549C5.50422 22.1412 5.46805 22.0132 5.464 21.8822L5.409 20.1022C5.4054 19.994 5.37977 19.8876 5.3337 19.7896C5.28762 19.6916 5.22205 19.604 5.141 19.5322C3.195 17.7932 2 15.2752 2 12.3582C2 6.7852 6.367 2.6582 12 2.6582ZM5.995 15.1952L8.932 10.5352C9.0425 10.3598 9.18818 10.2091 9.35984 10.0928C9.53149 9.97652 9.7254 9.89706 9.92931 9.85947C10.1332 9.82189 10.3427 9.82698 10.5445 9.87444C10.7464 9.9219 10.9362 10.0107 11.102 10.1352L13.438 11.8852C13.5421 11.9638 13.669 12.0063 13.7995 12.0063C13.93 12.0063 14.0569 11.9638 14.161 11.8852L17.316 9.4892C17.737 9.1702 18.287 9.6742 18.005 10.1222L15.068 14.7822C14.9575 14.9576 14.8118 15.1083 14.6402 15.2246C14.4685 15.3409 14.2746 15.4203 14.0707 15.4579C13.8668 15.4955 13.6573 15.4904 13.4555 15.443C13.2536 15.3955 13.0638 15.3067 12.898 15.1822L10.562 13.4322C10.4579 13.3536 10.331 13.3111 10.2005 13.3111C10.07 13.3111 9.94313 13.3536 9.839 13.4322L6.684 15.8272C6.263 16.1462 5.713 15.6422 5.995 15.1942V15.1952Z" fill="black"/>
</svg>
