<svg xmlns="http://www.w3.org/2000/svg" viewBox="0 0 699.19 641.42"><defs><style>.a{fill:none;stroke-width:11px;}.a,.b{stroke:#000;stroke-miterlimit:10;}.b,.c{fill:#fff;}.b{stroke-width:3px;}</style></defs><path class="a" d="M1011.5,368.14v389s5.16,63,74,73,91.18-90,91.18-90,88.6,3,123-123-8.6-169-8.6-169,9.46-60-15.49-111-89.45-82-89.45-82-29.25-62-106.67-54S1011.5,368.14,1011.5,368.14Z" transform="translate(-619.31 -194.93)"/><polygon points="572.3 60.21 570.34 157.21 570.31 158.87 569.16 159.85 507.24 212.91 445.52 266.21 504.85 210.25 564.45 154.58 563.27 157.21 561.3 60.21 572.3 60.21"/><polygon points="670.47 259.07 602.93 238.21 673.02 247.35 670.47 259.07"/><polygon points="551.52 546.66 529.17 446.02 530.45 447.92 466.29 399.24 465.99 399.02 465.88 398.74 445.52 351.21 468.17 397.69 467.76 397.19 534.34 442.51 535.28 443.15 535.63 444.41 563.16 543.76 551.52 546.66"/><path d="M1233.42,562.14c-4.86-1.53-9.6-3.31-14.3-5.16s-9.33-3.81-13.93-5.84-9.17-4.15-13.69-6.33-9-4.41-13.48-6.71l-2.37-1.23,0-2.73c0-2.88,0-5.75,0-8.63s.06-5.75.12-8.62c.13-5.75.35-11.5.69-17.25s.76-11.5,1.34-17.25,1.28-11.5,2.32-17.25c1.05,5.75,1.73,11.5,2.33,17.25s1,11.5,1.34,17.25.56,11.5.68,17.25c.06,2.87.12,5.75.13,8.62s0,5.75,0,8.63l-2.39-4q6.64,3.54,13.19,7.28t13,7.68q6.43,3.95,12.73,8.16C1225.25,556.11,1229.4,559,1233.42,562.14Z" transform="translate(-619.31 -194.93)"/><polygon points="562.09 343.52 521.22 351.21 559.48 334.91 562.09 343.52"/><path d="M1078.21,407.18c.22-5.71.79-11.35,1.45-17s1.47-11.19,2.39-16.75,1.92-11.09,3-16.61,2.27-11,3.56-16.48l.67-2.86,2.83-.55c2.43-.48,4.88-.93,7.33-1.35s4.9-.86,7.35-1.25c4.91-.81,9.84-1.51,14.78-2.16s9.9-1.17,14.88-1.61,10-.77,15-.83c-4.69,1.87-9.45,3.45-14.22,5s-9.56,2.88-14.37,4.18-9.63,2.51-14.48,3.64c-2.42.57-4.84,1.13-7.27,1.65s-4.86,1.06-7.3,1.55l3.5-3.41c-1.18,5.49-2.48,11-3.83,16.42s-2.81,10.9-4.37,16.31-3.21,10.8-5,16.16S1080.45,401.92,1078.21,407.18Z" transform="translate(-619.31 -194.93)"/><polygon points="469.49 148.06 456.86 103.1 477.88 144.8 469.49 148.06"/><path d="M1065,640.13c3.8,3.93,7.34,8,10.81,12.19s6.82,8.39,10.11,12.66,6.5,8.6,9.63,13,6.21,8.8,9.23,13.26l1.39,2-1,2.3q-3.42,7.65-7.06,15.2c-2.46,5-4.93,10-7.55,15s-5.29,9.87-8.1,14.73-5.73,9.67-8.94,14.35c1.38-5.5,3.08-10.87,4.84-16.2S1082,728,1084,722.81s4.09-10.41,6.23-15.58,4.41-10.27,6.72-15.35l.37,4.35c-3-4.48-5.94-9-8.8-13.55s-5.66-9.16-8.4-13.8-5.37-9.37-7.91-14.14S1067.17,645.13,1065,640.13Z" transform="translate(-619.31 -194.93)"/><polygon points="482.87 494.45 521.54 509.53 480.53 503.14 482.87 494.45"/><polygon points="528.54 446.27 515.84 395.98 515.99 396.4 488.97 332.79 488.83 332.47 488.84 332.18 491.97 266.21 491.65 332.25 491.53 331.63 521.28 394.02 521.35 394.17 521.43 394.44 536.25 444.15 528.54 446.27"/><polygon points="505.13 12.7 440.02 51.45 441.26 49.45 425.74 194.21 436.02 48.98 436.11 47.72 437.25 46.98 500.92 5.91 505.13 12.7"/><polygon points="390.01 319.49 412.47 281.53 412.39 281.7 434.34 230.21 414.99 282.73 414.97 282.78 414.91 282.89 394.37 321.93 390.01 319.49"/><polygon points="394.32 397.41 426.06 451.49 426.29 451.88 426.26 452.29 420.57 529.21 423.49 452.13 423.69 452.93 390.06 400.02 394.32 397.41"/><polygon points="594.43 535.28 601.66 485.06 601.86 485.91 573.69 440.21 604.01 484.51 604.25 484.87 604.21 485.37 599.39 535.88 594.43 535.28"/><polygon points="467.28 634.46 499.71 551.21 474.85 637.03 467.28 634.46"/><polygon points="617.55 308.21 691.99 312.26 691.12 320.22 617.55 308.21"/><circle class="b" cx="434.69" cy="230.07" r="6.5"/><circle class="b" cx="425.69" cy="197.07" r="6.5"/><circle class="b" cx="458.69" cy="212.07" r="6.5"/><circle class="b" cx="456.69" cy="103.07" r="6.5"/><circle class="b" cx="531.69" cy="135.07" r="6.5"/><circle class="b" cx="445.69" cy="266.07" r="6.5"/><circle class="b" cx="491.69" cy="266.07" r="6.5"/><circle class="b" cx="445.69" cy="351.07" r="6.5"/><circle class="b" cx="520.69" cy="351.07" r="6.5"/><circle class="b" cx="560.69" cy="272.07" r="6.5"/><circle class="b" cx="613.69" cy="367.07" r="6.5"/><circle class="b" cx="617.69" cy="308.07" r="6.5"/><circle class="b" cx="604.69" cy="239.07" r="6.5"/><circle class="b" cx="573.69" cy="440.07" r="6.5"/><circle class="b" cx="499.69" cy="551.07" r="6.5"/><circle class="b" cx="454.69" cy="560.07" r="6.5"/><circle class="b" cx="445.69" cy="445.07" r="6.5"/><circle class="b" cx="521.69" cy="510.07" r="6.5"/><circle class="b" cx="420.69" cy="526.07" r="6.5"/><circle cx="208.14" cy="428.3" r="123.83"/><circle class="c" cx="208.14" cy="428.3" r="70.79"/><polygon points="147.9 327.37 102.03 379.55 71.13 339.46 103.93 302.14 147.9 327.37"/><polygon points="243.89 311.94 174.46 314.62 182.25 264.6 231.89 262.68 243.89 311.94"/><polygon points="309.42 371.85 257.23 325.98 297.32 295.07 334.64 327.87 309.42 371.85"/><polygon points="322.77 460.13 318.31 390.79 368.51 397.29 371.7 446.87 322.77 460.13"/><polygon points="269.1 528.37 316.3 477.38 346.17 518.26 312.42 554.72 269.1 528.37"/><polygon points="97.52 478.87 91.27 409.67 42.66 423.81 47.13 473.29 97.52 478.87"/><polygon points="165.35 536.16 113.16 490.29 87.65 534.02 124.97 566.82 165.35 536.16"/><polygon points="254.61 538.08 185.27 542.55 198.16 591.5 247.74 588.31 254.61 538.08"/><circle cx="259.88" cy="164.75" r="77.76"/><circle class="c" cx="259.88" cy="164.75" r="44.45"/><polygon points="222.06 101.37 193.25 134.14 173.85 108.96 194.44 85.53 222.06 101.37"/><polygon points="282.33 91.68 238.73 93.36 243.63 61.95 274.8 60.75 282.33 91.68"/><polygon points="323.48 129.3 290.71 100.5 315.88 81.09 339.32 101.69 323.48 129.3"/><polygon points="331.87 184.74 329.06 141.19 360.59 145.28 362.59 176.41 331.87 184.74"/><polygon points="298.17 227.59 327.8 195.57 346.56 221.24 325.36 244.13 298.17 227.59"/><polygon points="190.42 196.5 186.5 153.05 155.97 161.93 158.78 193 190.42 196.5"/><polygon points="233.01 232.48 200.24 203.68 184.23 231.14 207.66 251.73 233.01 232.48"/><polygon points="289.06 233.69 245.52 236.49 253.62 267.23 284.75 265.23 289.06 233.69"/><circle cx="72.5" cy="225.12" r="54.25"/><circle class="c" cx="72.5" cy="225.12" r="31.01"/><polygon points="46.11 180.89 26.01 203.76 12.47 186.19 26.84 169.84 46.11 180.89"/><polygon points="88.16 174.13 57.74 175.31 61.15 153.39 82.91 152.55 88.16 174.13"/><polygon points="116.87 200.38 94 180.28 111.57 166.75 127.92 181.12 116.87 200.38"/><polygon points="122.72 239.06 120.76 208.68 142.76 211.53 144.16 233.25 122.72 239.06"/><polygon points="99.21 268.96 119.89 246.62 132.97 264.53 118.18 280.5 99.21 268.96"/><polygon points="24.03 247.27 21.3 216.95 0 223.15 1.96 244.82 24.03 247.27"/><polygon points="53.75 272.37 30.89 252.27 19.71 271.43 36.06 285.8 53.75 272.37"/><polygon points="92.86 273.21 62.48 275.17 68.12 296.62 89.85 295.22 92.86 273.21"/></svg>